# xmcd
#
# Track frame offsets: 
#        182
#        15487
#        34725
#        49460
#        62545
#        75157
#        89062
#        105035
#        129202
#        142680
#        158987
#        173247
#        186275
#        199922
#        216165
#        230792
#        254510
#        270232
#
# Disc length: 3764 seconds
#
# Revision: 0
# Processed by: cddbd v1.5.2PL0 Copyright (c) Steve Scherf et al.
# Submitted via: ExactAudioCopy v0.99pb5
#
DISCID=ec0eb212
DTITLE=Various Artist - Freiheit Pur
DYEAR=1900
DGENRE=Country
TTITLE0=Gunter Gabriel - Truck Stop Tom Astor und ich
TTITLE1=Larry Schuba and Western Union - Countrymusicfieber
TTITLE2=Linda Feller - Sonnenkinder sind wir alle
TTITLE3=Dagmar - Wahre Männer
TTITLE4=Country Rose and RalfPaulsen - Hallo Country Rose
TTITLE5=Jonny Hill - Suchst Du Gold
TTITLE6=Linda Feller - Andre Mütter haben auch ein schönes Kind
TTITLE7=Gunter Gabriel und Linda Feller - Wenn ich nur ein Trucker wär
TTITLE8=Frank Baum and Country Green - Hallo Nachbar guten Morgen
TTITLE9=Greyhounds - Highway Queen
TTITLE10=Hanna and Daana - It's Countrytime in Germany
TTITLE11=Mike Herman Booze Company - Verliebt in Country
TTITLE12=Joe Hodgkins Boss Band - Portland daheim
TTITLE13=Iris Mc Collins - Spürst Du das Fieber
TTITLE14=Greyhounds - Dank Gott für das Radio
TTITLE15=Larry Schuba and Western Union - Wieder zuhaus
TTITLE16=Dagmar - Ich möchte nie wieder ein Singel sein
TTITLE17=Jonny Hill - Wenn ich nur fliegen könnte
EXTD=
EXTT0=
EXTT1=
EXTT2=
EXTT3=
EXTT4=
EXTT5=
EXTT6=
EXTT7=
EXTT8=
EXTT9=
EXTT10=
EXTT11=
EXTT12=
EXTT13=
EXTT14=
EXTT15=
EXTT16=
EXTT17=
PLAYORDER=
